<svg width="1865" height="1000" viewBox="0 0 1865 1000" fill="none" xmlns="http://www.w3.org/2000/svg">
<path d="M0 0H1865V1000H0V0Z" fill="white"/>
<path d="M292 493C292 490.239 294.239 488 297 488H703C705.761 488 708 490.239 708 493V842C708 844.761 705.761 847 703 847H297C294.239 847 292 844.761 292 842V493Z" fill="#261B14"/>
<path d="M296.046 404.986C314.075 366.284 342.745 333.51 378.706 310.493C414.667 287.476 456.435 275.167 499.131 275.002C541.827 274.837 583.689 286.824 619.827 309.562C655.964 332.301 684.886 364.852 703.215 403.414L642.25 432.39C629.42 405.396 609.175 382.61 583.879 366.693C558.582 350.777 529.279 342.386 499.392 342.501C469.505 342.617 440.267 351.233 415.094 367.345C389.922 383.457 369.853 406.399 357.232 433.49L296.046 404.986Z" fill="#A9BF04"/>
<path d="M205.402 362.752C231.447 306.848 272.859 259.51 324.804 226.264C376.749 193.019 437.08 175.239 498.752 175.002C560.424 174.766 620.891 192.081 673.089 224.927C725.287 257.772 767.062 304.792 793.535 360.494L734.828 388.395C713.65 343.834 680.23 306.218 638.471 279.941C596.712 253.665 548.339 239.812 499.002 240.002C449.664 240.191 401.399 254.415 359.843 281.011C318.288 307.608 285.157 345.479 264.322 390.201L205.402 362.752Z" fill="#A9BF04"/>
<path d="M114.757 320.522C148.815 247.417 202.97 185.512 270.898 142.038C338.825 98.5628 417.72 75.3128 498.368 75.0031C579.016 74.6935 658.088 97.337 726.347 140.289C794.606 183.241 849.235 244.728 883.854 317.569L826.276 344.933C796.85 283.019 750.415 230.755 692.395 194.246C634.375 157.736 567.164 138.489 498.613 138.753C430.062 139.016 363.001 158.778 305.263 195.732C247.525 232.686 201.492 285.305 172.543 347.443L114.757 320.522Z" fill="#A9BF04"/>
<path d="M302.454 875.503C287.205 859.949 287.205 835.051 302.454 819.497L375.738 744.749C383.261 737.075 393.555 732.752 404.301 732.752H595.699C606.445 732.752 616.739 737.075 624.262 744.749L697.546 819.497C712.795 835.051 712.795 859.949 697.546 875.503L624.262 950.251C616.739 957.925 606.445 962.248 595.699 962.248H404.301C393.555 962.248 383.261 957.925 375.738 950.251L302.454 875.503Z" fill="#261B14"/>
<path d="M724.922 839H660.531L660.938 791.469H724.922C740.901 791.469 754.375 787.88 765.344 780.703C776.312 773.391 784.573 762.76 790.125 748.812C795.812 734.865 798.656 718.005 798.656 698.234V683.812C798.656 668.646 797.031 655.307 793.781 643.797C790.667 632.286 785.995 622.604 779.766 614.75C773.536 606.896 765.885 601.005 756.812 597.078C747.74 593.016 737.312 590.984 725.531 590.984H659.312V543.25H725.531C745.302 543.25 763.38 546.635 779.766 553.406C796.286 560.042 810.573 569.589 822.625 582.047C834.677 594.505 843.953 609.401 850.453 626.734C857.089 643.932 860.406 663.094 860.406 684.219V698.234C860.406 719.224 857.089 738.385 850.453 755.719C843.953 773.052 834.677 787.948 822.625 800.406C810.708 812.729 796.422 822.276 779.766 829.047C763.245 835.682 744.964 839 724.922 839ZM695.062 543.25V839H634.125V543.25H695.062Z" fill="#8C6D5B"/>
<path d="M736.811 825H674.897L675.287 779.297H736.811C752.175 779.297 765.131 775.846 775.678 768.945C786.225 761.914 794.168 751.693 799.506 738.281C804.975 724.87 807.709 708.659 807.709 689.648V675.781C807.709 661.198 806.147 648.372 803.022 637.305C800.027 626.237 795.535 616.927 789.545 609.375C783.556 601.823 776.199 596.159 767.475 592.383C758.751 588.477 748.725 586.523 737.397 586.523H673.725V540.625H737.397C756.407 540.625 773.79 543.88 789.545 550.391C805.431 556.771 819.168 565.951 830.756 577.93C842.345 589.909 851.264 604.232 857.514 620.898C863.894 637.435 867.084 655.859 867.084 676.172V689.648C867.084 709.831 863.894 728.255 857.514 744.922C851.264 761.589 842.345 775.911 830.756 787.891C819.298 799.74 805.561 808.919 789.545 815.43C773.66 821.81 756.082 825 736.811 825ZM708.1 540.625V825H649.506V540.625H708.1ZM962.157 659.766V825H905.907V613.672H958.837L962.157 659.766ZM1025.83 612.305L1024.85 664.453C1022.12 664.062 1018.8 663.737 1014.89 663.477C1011.12 663.086 1007.66 662.891 1004.54 662.891C996.597 662.891 989.696 663.932 983.837 666.016C978.107 667.969 973.29 670.898 969.383 674.805C965.607 678.711 962.743 683.464 960.79 689.062C958.967 694.661 957.925 701.042 957.665 708.203L946.337 704.688C946.337 691.016 947.704 678.451 950.438 666.992C953.172 655.404 957.144 645.312 962.352 636.719C967.691 628.125 974.201 621.484 981.883 616.797C989.566 612.109 998.355 609.766 1008.25 609.766C1011.38 609.766 1014.57 610.026 1017.82 610.547C1021.08 610.938 1023.75 611.523 1025.83 612.305ZM1111.53 613.672V825H1055.08V613.672H1111.53ZM1051.57 558.594C1051.57 550.391 1054.43 543.62 1060.16 538.281C1065.89 532.943 1073.57 530.273 1083.21 530.273C1092.71 530.273 1100.33 532.943 1106.06 538.281C1111.92 543.62 1114.85 550.391 1114.85 558.594C1114.85 566.797 1111.92 573.568 1106.06 578.906C1100.33 584.245 1092.71 586.914 1083.21 586.914C1073.57 586.914 1065.89 584.245 1060.16 578.906C1054.43 573.568 1051.57 566.797 1051.57 558.594ZM1212.85 658.789V825H1156.6V613.672H1209.33L1212.85 658.789ZM1204.65 711.914H1189.41C1189.41 696.289 1191.43 682.227 1195.47 669.727C1199.5 657.096 1205.17 646.354 1212.46 637.5C1219.75 628.516 1228.41 621.68 1238.43 616.992C1248.59 612.174 1259.92 609.766 1272.42 609.766C1282.31 609.766 1291.36 611.198 1299.57 614.062C1307.77 616.927 1314.8 621.484 1320.66 627.734C1326.65 633.984 1331.21 642.253 1334.33 652.539C1337.59 662.826 1339.22 675.391 1339.22 690.234V825H1282.58V690.039C1282.58 680.664 1281.27 673.372 1278.67 668.164C1276.06 662.956 1272.22 659.31 1267.15 657.227C1262.2 655.013 1256.08 653.906 1248.79 653.906C1241.23 653.906 1234.66 655.404 1229.06 658.398C1223.59 661.393 1219.03 665.56 1215.39 670.898C1211.87 676.107 1209.2 682.227 1207.38 689.258C1205.56 696.289 1204.65 703.841 1204.65 711.914ZM1485.26 613.672V653.516H1362.22V613.672H1485.26ZM1392.69 561.523H1448.94V761.328C1448.94 767.448 1449.72 772.135 1451.28 775.391C1452.97 778.646 1455.45 780.924 1458.7 782.227C1461.96 783.398 1466.06 783.984 1471.01 783.984C1474.52 783.984 1477.65 783.854 1480.38 783.594C1483.25 783.203 1485.66 782.812 1487.61 782.422L1487.8 823.828C1482.99 825.391 1477.78 826.628 1472.18 827.539C1466.58 828.451 1460.4 828.906 1453.62 828.906C1441.25 828.906 1430.45 826.888 1421.2 822.852C1412.09 818.685 1405.06 812.044 1400.11 802.93C1395.16 793.815 1392.69 781.836 1392.69 766.992V561.523ZM1502.99 721.484V717.383C1502.99 701.888 1505.21 687.63 1509.63 674.609C1514.06 661.458 1520.51 650.065 1528.97 640.43C1537.43 630.794 1547.85 623.307 1560.22 617.969C1572.59 612.5 1586.78 609.766 1602.8 609.766C1618.81 609.766 1633.07 612.5 1645.57 617.969C1658.07 623.307 1668.55 630.794 1677.02 640.43C1685.61 650.065 1692.12 661.458 1696.55 674.609C1700.98 687.63 1703.19 701.888 1703.19 717.383V721.484C1703.19 736.849 1700.98 751.107 1696.55 764.258C1692.12 777.279 1685.61 788.672 1677.02 798.438C1668.55 808.073 1658.14 815.56 1645.77 820.898C1633.4 826.237 1619.2 828.906 1603.19 828.906C1587.17 828.906 1572.92 826.237 1560.42 820.898C1548.05 815.56 1537.56 808.073 1528.97 798.438C1520.51 788.672 1514.06 777.279 1509.63 764.258C1505.21 751.107 1502.99 736.849 1502.99 721.484ZM1559.24 717.383V721.484C1559.24 730.339 1560.02 738.607 1561.59 746.289C1563.15 753.971 1565.62 760.742 1569.01 766.602C1572.52 772.331 1577.08 776.823 1582.68 780.078C1588.28 783.333 1595.12 784.961 1603.19 784.961C1611 784.961 1617.71 783.333 1623.31 780.078C1628.91 776.823 1633.4 772.331 1636.78 766.602C1640.17 760.742 1642.64 753.971 1644.2 746.289C1645.9 738.607 1646.74 730.339 1646.74 721.484V717.383C1646.74 708.789 1645.9 700.716 1644.2 693.164C1642.64 685.482 1640.1 678.711 1636.59 672.852C1633.2 666.862 1628.71 662.174 1623.11 658.789C1617.51 655.404 1610.74 653.711 1602.8 653.711C1594.86 653.711 1588.08 655.404 1582.49 658.789C1577.02 662.174 1572.52 666.862 1569.01 672.852C1565.62 678.711 1563.15 685.482 1561.59 693.164C1560.02 700.716 1559.24 708.789 1559.24 717.383Z" fill="#261B14"/>
</svg>
