<svg width="1024" height="1024" viewBox="0 0 1024 1024" fill="none" xmlns="http://www.w3.org/2000/svg">
<path d="M0 0H1024V1024H0V0Z" fill="white"/>
<path d="M299.008 504.832C299.008 502.004 301.3 499.712 304.128 499.712H719.872C722.7 499.712 724.992 502.004 724.992 504.832V862.208C724.992 865.036 722.7 867.328 719.872 867.328H304.128C301.3 867.328 299.008 865.036 299.008 862.208V504.832Z" fill="#251A14"/>
<path d="M303.151 414.706C321.613 375.075 350.971 341.514 387.795 317.945C424.62 294.376 467.39 281.771 511.11 281.602C554.831 281.433 597.697 293.707 634.702 316.992C671.707 340.276 701.324 373.608 720.092 413.096L657.664 442.767C644.527 415.126 623.795 391.793 597.892 375.494C571.988 359.195 541.982 350.603 511.377 350.721C480.773 350.839 450.834 359.663 425.057 376.161C399.28 392.66 378.729 416.152 365.805 443.894L303.151 414.706Z" fill="#A9BF04"/>
<path d="M210.332 371.458C237.001 314.213 279.408 265.738 332.599 231.694C385.791 197.651 447.57 179.445 510.722 179.202C573.874 178.96 635.792 196.691 689.243 230.325C742.694 263.959 785.472 312.107 812.58 369.146L752.464 397.716C730.778 352.086 696.555 313.567 653.794 286.66C611.034 259.753 561.5 245.568 510.978 245.762C460.456 245.956 411.032 260.521 368.479 287.756C325.926 314.99 292.001 353.77 270.665 399.566L210.332 371.458Z" fill="#A9BF04"/>
<path d="M117.511 328.214C152.386 253.355 207.841 189.965 277.399 145.447C346.957 100.928 427.746 77.1203 510.329 76.8032C592.913 76.4861 673.882 99.6731 743.779 143.656C813.677 187.639 869.617 250.601 905.066 325.19L846.106 353.212C815.975 289.811 768.425 236.293 709.012 198.907C649.6 161.522 580.776 141.813 510.58 142.083C440.384 142.352 371.713 162.589 312.589 200.43C253.465 238.27 206.328 292.152 176.684 355.782L117.511 328.214Z" fill="#A9BF04"/>
<path d="M309.713 896.515C294.098 880.587 294.098 855.093 309.713 839.165L384.756 762.623C392.459 754.765 403 750.338 414.004 750.338H609.996C621 750.338 631.541 754.765 639.244 762.623L714.287 839.165C729.902 855.093 729.902 880.587 714.287 896.515L639.244 973.057C631.541 980.915 621 985.342 609.996 985.342H414.004C403 985.342 392.459 980.915 384.756 973.057L309.713 896.515Z" fill="#251A14"/>
<path d="M754.296 822.272H690.896L691.296 775.472H754.296C770.029 775.472 783.296 771.939 794.096 764.872C804.896 757.672 813.029 747.205 818.496 733.472C824.096 719.739 826.896 703.139 826.896 683.672V669.472C826.896 654.539 825.296 641.405 822.096 630.072C819.029 618.739 814.429 609.205 808.296 601.472C802.163 593.739 794.629 587.939 785.696 584.072C776.763 580.072 766.496 578.072 754.896 578.072H689.696V531.072H754.896C774.363 531.072 792.163 534.405 808.296 541.072C824.563 547.605 838.629 557.005 850.496 569.272C862.363 581.539 871.496 596.205 877.896 613.272C884.429 630.205 887.696 649.072 887.696 669.872V683.672C887.696 704.339 884.429 723.205 877.896 740.272C871.496 757.339 862.363 772.005 850.496 784.272C838.763 796.405 824.696 805.805 808.296 812.472C792.029 819.005 774.029 822.272 754.296 822.272ZM724.896 531.072V822.272H664.896V531.072H724.896Z" fill="#251A14"/>
</svg>
