<svg width="80" height="80" viewBox="0 0 80 80" fill="none" xmlns="http://www.w3.org/2000/svg">
<path d="M80 40C80 62.0914 62.0914 80 40 80C17.9086 80 0 62.0914 0 40C0 17.9086 17.9086 0 40 0C62.0914 0 80 17.9086 80 40Z" fill="white"/>
<path d="M40 8C36.6863 8 34 10.6863 34 14V34H14C10.6863 34 8 36.6863 8 40C8 43.3137 10.6863 46 14 46H34V66C34 69.3137 36.6863 72 40 72C43.3137 72 46 69.3137 46 66V46H66C69.3137 46 72 43.3137 72 40C72 36.6863 69.3137 34 66 34H46V14C46 10.6863 43.3137 8 40 8Z" fill="#A9BF04"/>
</svg>
